<?xml version="1.0" standalone="no"?>
<!DOCTYPE svg PUBLIC "-//W3C//DTD SVG 20010904//EN"
 "http://www.w3.org/TR/2001/REC-SVG-20010904/DTD/svg10.dtd">
<svg version="1.0" xmlns="http://www.w3.org/2000/svg"
 width="67.000000pt" height="67.000000pt" viewBox="0 0 67.000000 67.000000"
 preserveAspectRatio="xMidYMid meet">

<g transform="translate(0.000000,67.000000) scale(0.100000,-0.100000)"
fill="#000000" stroke="none">
<path d="M10 550 l0 -90 213 -2 212 -3 3 -27 3 -28 -200 0 -201 0 0 -185 0
-185 100 0 100 0 0 100 c0 55 3 100 8 100 4 0 52 -45 107 -100 l100 -100 102
0 103 0 0 90 0 90 -80 0 c-76 0 -83 2 -105 28 -31 35 -31 38 6 46 47 9 97 44
116 79 20 40 19 126 -3 172 -21 44 -65 79 -119 94 -23 6 -130 11 -252 11
l-213 0 0 -90z"/>
</g>
</svg>
